<svg width="239" height="118" viewBox="0 0 239 118" fill="none" xmlns="http://www.w3.org/2000/svg">
<path d="M236.806 42.2029C231.624 59.0943 213.73 68.5867 196.839 63.4049C179.947 58.2231 170.455 40.3292 175.637 23.4379C180.819 6.54654 198.713 -2.94591 215.604 2.23591C232.495 7.41772 241.988 25.3116 236.806 42.2029Z" fill="#F588B9"/>
<path d="M196.272 29.7687L201.972 28.6863C201.989 28.6829 202.004 28.67 202.009 28.6529L202.778 26.1456C202.789 26.1106 202.759 26.0773 202.723 26.0851L193.298 28.1491C193.281 28.1529 193.267 28.1655 193.262 28.1822L192.744 29.868C192.739 29.8858 192.744 29.9051 192.758 29.9175L199.646 36.1215C199.672 36.1449 199.713 36.1331 199.723 36.0995L200.494 33.5883C200.5 33.5702 200.494 33.5506 200.48 33.5383L196.249 29.852C196.219 29.8258 196.233 29.7761 196.272 29.7687Z" fill="#FFEDF5"/>
<path d="M196.272 29.7687L201.972 28.6863C201.989 28.6829 202.004 28.67 202.009 28.6529L202.778 26.1456C202.789 26.1106 202.759 26.0773 202.723 26.0851L193.298 28.1491C193.281 28.1529 193.267 28.1655 193.262 28.1822L192.744 29.868C192.739 29.8858 192.744 29.9051 192.758 29.9175L199.646 36.1215C199.672 36.1449 199.713 36.1331 199.723 36.0995L200.494 33.5883C200.5 33.5702 200.494 33.5506 200.48 33.5383L196.249 29.852C196.219 29.8258 196.233 29.7761 196.272 29.7687Z" fill="#FFEDF5"/>
<path d="M196.272 29.7687L201.972 28.6863C201.989 28.6829 202.004 28.67 202.009 28.6529L202.778 26.1456C202.789 26.1106 202.759 26.0773 202.723 26.0851L193.298 28.1491C193.281 28.1529 193.267 28.1655 193.262 28.1822L192.744 29.868C192.739 29.8858 192.744 29.9051 192.758 29.9175L199.646 36.1215C199.672 36.1449 199.713 36.1331 199.723 36.0995L200.494 33.5883C200.5 33.5702 200.494 33.5506 200.48 33.5383L196.249 29.852C196.219 29.8258 196.233 29.7761 196.272 29.7687Z" fill="#FFEDF5"/>
<path d="M216.026 35.6932L211.895 31.6626C211.883 31.6502 211.878 31.6316 211.883 31.6144L212.653 29.1071C212.663 29.0722 212.708 29.0612 212.733 29.0873L219.409 35.9804C219.421 35.9928 219.425 36.0109 219.42 36.0276L218.903 37.7134C218.897 37.7312 218.882 37.7443 218.864 37.7471L209.65 39.1221C209.615 39.1272 209.588 39.0946 209.598 39.061L210.369 36.5498C210.374 36.5317 210.39 36.5185 210.408 36.516L215.998 35.7752C216.038 35.7699 216.054 35.721 216.026 35.6932Z" fill="#FFEDF5"/>
<path d="M216.026 35.6932L211.895 31.6626C211.883 31.6502 211.878 31.6316 211.883 31.6144L212.653 29.1071C212.663 29.0722 212.708 29.0612 212.733 29.0873L219.409 35.9804C219.421 35.9928 219.425 36.0109 219.42 36.0276L218.903 37.7134C218.897 37.7312 218.882 37.7443 218.864 37.7471L209.65 39.1221C209.615 39.1272 209.588 39.0946 209.598 39.061L210.369 36.5498C210.374 36.5317 210.39 36.5185 210.408 36.516L215.998 35.7752C216.038 35.7699 216.054 35.721 216.026 35.6932Z" fill="#FFEDF5"/>
<path d="M216.026 35.6932L211.895 31.6626C211.883 31.6502 211.878 31.6316 211.883 31.6144L212.653 29.1071C212.663 29.0722 212.708 29.0612 212.733 29.0873L219.409 35.9804C219.421 35.9928 219.425 36.0109 219.42 36.0276L218.903 37.7134C218.897 37.7312 218.882 37.7443 218.864 37.7471L209.65 39.1221C209.615 39.1272 209.588 39.0946 209.598 39.061L210.369 36.5498C210.374 36.5317 210.39 36.5185 210.408 36.516L215.998 35.7752C216.038 35.7699 216.054 35.721 216.026 35.6932Z" fill="#FFEDF5"/>
<path d="M211.373 27.4969L208.872 26.7467C208.853 26.7409 208.832 26.7478 208.82 26.764L200.247 38.1705C200.227 38.1972 200.24 38.2355 200.271 38.245L202.773 38.9952C202.792 39.001 202.813 38.994 202.825 38.9779L211.397 27.5714C211.417 27.5447 211.405 27.5064 211.373 27.4969Z" fill="#FFEDF5"/>
<rect x="7" y="40" width="212" height="58" rx="29" fill="#F3F3F1"/>
<path d="M60.0075 74V64.0568H66.4745V65.5667H61.8088V68.2662H66.1395V69.7761H61.8088V72.4901H66.5133V74H60.0075ZM69.992 69.6304V74H68.2345V66.5426H69.9143V67.8098H70.0017C70.1732 67.3923 70.4467 67.0605 70.8222 66.8145C71.2009 66.5685 71.6686 66.4455 72.2253 66.4455C72.74 66.4455 73.1882 66.5556 73.5702 66.7757C73.9553 66.9958 74.2531 67.3146 74.4635 67.7321C74.6771 68.1496 74.7823 68.6562 74.7791 69.2517V74H73.0216V69.5236C73.0216 69.0252 72.8921 68.6351 72.6331 68.3536C72.3774 68.072 72.023 67.9312 71.5699 67.9312C71.2624 67.9312 70.9889 67.9991 70.7494 68.1351C70.5131 68.2678 70.327 68.4604 70.191 68.7128C70.0583 68.9653 69.992 69.2712 69.992 69.6304ZM80.2896 66.5426V67.902H76.0026V66.5426H80.2896ZM77.061 64.7559H78.8185V71.757C78.8185 71.9932 78.8541 72.1745 78.9253 72.3007C78.9998 72.4237 79.0969 72.5079 79.2166 72.5532C79.3364 72.5985 79.4691 72.6212 79.6147 72.6212C79.7248 72.6212 79.8251 72.6131 79.9158 72.5969C80.0096 72.5807 80.0808 72.5661 80.1294 72.5532L80.4255 73.9272C80.3317 73.9595 80.1973 73.9951 80.0226 74.034C79.851 74.0728 79.6406 74.0955 79.3914 74.102C78.9512 74.1149 78.5547 74.0486 78.2019 73.9029C77.8491 73.754 77.5691 73.5242 77.362 73.2135C77.1581 72.9028 77.0577 72.5143 77.061 72.0483V64.7559ZM84.9808 74.1457C84.2331 74.1457 83.5874 73.9903 83.0436 73.6796C82.5031 73.3656 82.0872 72.9222 81.7959 72.3493C81.5046 71.7731 81.3589 71.0951 81.3589 70.315C81.3589 69.5479 81.5046 68.8747 81.7959 68.2953C82.0904 67.7127 82.5015 67.2595 83.0291 66.9359C83.5567 66.609 84.1765 66.4455 84.8886 66.4455C85.3482 66.4455 85.7819 66.52 86.1897 66.6688C86.6008 66.8145 86.9633 67.0411 87.2773 67.3486C87.5944 67.656 87.8437 68.0477 88.0249 68.5235C88.2062 68.996 88.2968 69.5592 88.2968 70.213V70.752H82.1843V69.5673H86.6121C86.6089 69.2307 86.536 68.9313 86.3936 68.6691C86.2512 68.4037 86.0522 68.195 85.7965 68.0428C85.544 67.8907 85.2495 67.8146 84.9128 67.8146C84.5536 67.8146 84.238 67.902 83.9661 68.0768C83.6942 68.2484 83.4822 68.4749 83.3301 68.7565C83.1812 69.0349 83.1051 69.3408 83.1019 69.6741V70.7083C83.1019 71.142 83.1812 71.5142 83.3398 71.8249C83.4984 72.1324 83.7201 72.3687 84.0049 72.5338C84.2898 72.6956 84.6231 72.7765 85.0051 72.7765C85.2608 72.7765 85.4922 72.7409 85.6994 72.6697C85.9065 72.5953 86.0861 72.4868 86.2383 72.3444C86.3904 72.202 86.5053 72.0256 86.583 71.8152L88.224 71.9997C88.1204 72.4334 87.923 72.8121 87.6317 73.1358C87.3436 73.4562 86.9746 73.7055 86.5247 73.8835C86.0748 74.0583 85.5602 74.1457 84.9808 74.1457ZM89.7837 74V66.5426H91.4878V67.7855H91.5655C91.7014 67.355 91.9345 67.0233 92.2646 66.7902C92.598 66.5539 92.9783 66.4358 93.4056 66.4358C93.5027 66.4358 93.6111 66.4407 93.7309 66.4504C93.8538 66.4568 93.9558 66.4682 94.0367 66.4844V68.1011C93.9623 68.0752 93.8441 68.0525 93.6823 68.0331C93.5237 68.0105 93.37 67.9991 93.2211 67.9991C92.9006 67.9991 92.6126 68.0687 92.3569 68.2079C92.1044 68.3438 91.9053 68.5332 91.7597 68.7759C91.614 69.0187 91.5412 69.2987 91.5412 69.6159V74H89.7837ZM106.844 64.0568V74H105.242L100.557 67.2272H100.475V74H98.6733V64.0568H100.285L104.965 70.8345H105.053V64.0568H106.844ZM112.031 74.1457C111.283 74.1457 110.637 73.9903 110.094 73.6796C109.553 73.3656 109.137 72.9222 108.846 72.3493C108.555 71.7731 108.409 71.0951 108.409 70.315C108.409 69.5479 108.555 68.8747 108.846 68.2953C109.14 67.7127 109.552 67.2595 110.079 66.9359C110.607 66.609 111.226 66.4455 111.939 66.4455C112.398 66.4455 112.832 66.52 113.24 66.6688C113.651 66.8145 114.013 67.0411 114.327 67.3486C114.644 67.656 114.894 68.0477 115.075 68.5235C115.256 68.996 115.347 69.5592 115.347 70.213V70.752H109.234V69.5673H113.662C113.659 69.2307 113.586 68.9313 113.444 68.6691C113.301 68.4037 113.102 68.195 112.846 68.0428C112.594 67.8907 112.299 67.8146 111.963 67.8146C111.604 67.8146 111.288 67.902 111.016 68.0768C110.744 68.2484 110.532 68.4749 110.38 68.7565C110.231 69.0349 110.155 69.3408 110.152 69.6741V70.7083C110.152 71.142 110.231 71.5142 110.39 71.8249C110.548 72.1324 110.77 72.3687 111.055 72.5338C111.34 72.6956 111.673 72.7765 112.055 72.7765C112.311 72.7765 112.542 72.7409 112.749 72.6697C112.957 72.5953 113.136 72.4868 113.288 72.3444C113.44 72.202 113.555 72.0256 113.633 71.8152L115.274 71.9997C115.17 72.4334 114.973 72.8121 114.682 73.1358C114.394 73.4562 114.025 73.7055 113.575 73.8835C113.125 74.0583 112.61 74.1457 112.031 74.1457ZM118.111 66.5426L119.616 69.2954L121.145 66.5426H123.004L120.757 70.2713L123.043 74H121.194L119.616 71.3151L118.052 74H116.188L118.46 70.2713L116.246 66.5426H118.111ZM128.088 66.5426V67.902H123.801V66.5426H128.088ZM124.859 64.7559H126.617V71.757C126.617 71.9932 126.652 72.1745 126.723 72.3007C126.798 72.4237 126.895 72.5079 127.015 72.5532C127.135 72.5985 127.267 72.6212 127.413 72.6212C127.523 72.6212 127.623 72.6131 127.714 72.5969C127.808 72.5807 127.879 72.5661 127.928 72.5532L128.224 73.9272C128.13 73.9595 127.996 73.9951 127.821 74.034C127.649 74.0728 127.439 74.0955 127.19 74.102C126.749 74.1149 126.353 74.0486 126 73.9029C125.647 73.754 125.367 73.5242 125.16 73.2135C124.956 72.9028 124.856 72.5143 124.859 72.0483V64.7559ZM133.027 74V64.0568H134.828V72.4901H139.207V74H133.027ZM143.994 74.1457C143.246 74.1457 142.601 73.9903 142.057 73.6796C141.516 73.3656 141.101 72.9222 140.809 72.3493C140.518 71.7731 140.372 71.0951 140.372 70.315C140.372 69.5479 140.518 68.8747 140.809 68.2953C141.104 67.7127 141.515 67.2595 142.042 66.9359C142.57 66.609 143.19 66.4455 143.902 66.4455C144.362 66.4455 144.795 66.52 145.203 66.6688C145.614 66.8145 145.977 67.0411 146.291 67.3486C146.608 67.656 146.857 68.0477 147.038 68.5235C147.22 68.996 147.31 69.5592 147.31 70.213V70.752H141.198V69.5673H145.625C145.622 69.2307 145.549 68.9313 145.407 68.6691C145.265 68.4037 145.066 68.195 144.81 68.0428C144.557 67.8907 144.263 67.8146 143.926 67.8146C143.567 67.8146 143.251 67.902 142.979 68.0768C142.708 68.2484 142.496 68.4749 142.343 68.7565C142.195 69.0349 142.118 69.3408 142.115 69.6741V70.7083C142.115 71.142 142.195 71.5142 142.353 71.8249C142.512 72.1324 142.733 72.3687 143.018 72.5338C143.303 72.6956 143.637 72.7765 144.018 72.7765C144.274 72.7765 144.506 72.7409 144.713 72.6697C144.92 72.5953 145.1 72.4868 145.252 72.3444C145.404 72.202 145.519 72.0256 145.596 71.8152L147.237 71.9997C147.134 72.4334 146.936 72.8121 146.645 73.1358C146.357 73.4562 145.988 73.7055 145.538 73.8835C145.088 74.0583 144.574 74.1457 143.994 74.1457ZM155.245 66.5426L152.589 74H150.647L147.991 66.5426H149.865L151.579 72.0822H151.657L153.375 66.5426H155.245ZM159.509 74.1457C158.761 74.1457 158.115 73.9903 157.571 73.6796C157.031 73.3656 156.615 72.9222 156.324 72.3493C156.032 71.7731 155.887 71.0951 155.887 70.315C155.887 69.5479 156.032 68.8747 156.324 68.2953C156.618 67.7127 157.029 67.2595 157.557 66.9359C158.084 66.609 158.704 66.4455 159.416 66.4455C159.876 66.4455 160.31 66.52 160.717 66.6688C161.129 66.8145 161.491 67.0411 161.805 67.3486C162.122 67.656 162.371 68.0477 162.553 68.5235C162.734 68.996 162.825 69.5592 162.825 70.213V70.752H156.712V69.5673H161.14C161.137 69.2307 161.064 68.9313 160.921 68.6691C160.779 68.4037 160.58 68.195 160.324 68.0428C160.072 67.8907 159.777 67.8146 159.441 67.8146C159.081 67.8146 158.766 67.902 158.494 68.0768C158.222 68.2484 158.01 68.4749 157.858 68.7565C157.709 69.0349 157.633 69.3408 157.63 69.6741V70.7083C157.63 71.142 157.709 71.5142 157.868 71.8249C158.026 72.1324 158.248 72.3687 158.533 72.5338C158.818 72.6956 159.151 72.7765 159.533 72.7765C159.789 72.7765 160.02 72.7409 160.227 72.6697C160.434 72.5953 160.614 72.4868 160.766 72.3444C160.918 72.202 161.033 72.0256 161.111 71.8152L162.752 71.9997C162.648 72.4334 162.451 72.8121 162.159 73.1358C161.871 73.4562 161.502 73.7055 161.052 73.8835C160.603 74.0583 160.088 74.1457 159.509 74.1457ZM166.069 64.0568V74H164.311V64.0568H166.069Z" fill="#262625"/>
<path d="M29.0916 35.8711C31.9242 43.6536 27.9115 52.2589 20.1289 55.0916C12.3464 57.9242 3.74106 53.9115 0.908446 46.1289C-1.92417 38.3464 2.08854 29.7411 9.87109 26.9084C17.6536 24.0758 26.2589 28.0885 29.0916 35.8711Z" fill="#A2B87E"/>
<path d="M11.804 46.0533C11.6118 45.9657 11.5336 45.7338 11.6335 45.5477L13.2983 42.4482L9.75652 43.0035C9.54861 43.0361 9.35619 42.8868 9.33606 42.6773L9.14825 40.7231C9.12789 40.5113 9.2921 40.3269 9.50488 40.3227L13.0723 40.2523L10.7837 37.5148C10.6472 37.3515 10.6785 37.1066 10.8517 36.9829L12.4493 35.8419C12.6205 35.7195 12.8594 35.7667 12.9713 35.945L14.8773 38.9814L16.1228 35.691C16.1976 35.4934 16.4239 35.4002 16.6161 35.4878L18.4111 36.3053C18.6037 36.393 18.6818 36.6255 18.5812 36.8117L16.9084 39.9065L20.4502 39.3513C20.6582 39.3187 20.8506 39.4679 20.8707 39.6774L21.0586 41.6321C21.0789 41.8438 20.9149 42.0281 20.7023 42.0325L17.1438 42.1067L19.4236 44.84C19.5599 45.0033 19.5284 45.248 19.3554 45.3716L17.7575 46.5129C17.5862 46.6352 17.3473 46.588 17.2354 46.4098L15.3295 43.3733L14.0927 46.6667C14.0183 46.8648 13.7916 46.9585 13.599 46.8708L11.804 46.0533Z" fill="#ECFFCE"/>
<path d="M205.229 91.8838C208.817 101.742 203.734 112.642 193.876 116.23C184.019 119.818 173.119 114.735 169.531 104.877C165.943 95.0191 171.025 84.1191 180.883 80.5311C190.741 76.9431 201.641 82.0259 205.229 91.8838Z" fill="#6B93C0"/>
<path d="M195.529 93.9137L189.042 90.8892L182.243 96.8877L185.53 98.4208L180.315 103.586L191.999 98.6863L187.878 96.7648L195.529 93.9137Z" fill="#BADAFF"/>
</svg>
