<svg width="94" height="40" viewBox="0 0 94 40" fill="none" xmlns="http://www.w3.org/2000/svg">
<rect x="3.75781" width="91" height="27" rx="13.5" transform="rotate(8 3.75781 0)" fill="#262625"/>
<path d="M14.2136 19.6464L15.4282 11.0041L17.2554 11.2609L16.2525 18.3967L19.9576 18.9174L19.7459 20.4239L14.2136 19.6464ZM22.666 20.8343L20.708 20.5591L24.9061 12.3361L27.2608 12.667L29.0254 21.7281L27.0674 21.4529L25.8396 14.4812L25.7721 14.4717L22.666 20.8343ZM23.0211 17.4201L27.6461 18.0701L27.4456 19.4964L22.8206 18.8464L23.0211 17.4201ZM32.8159 22.2608L34.0305 13.6185L37.4402 14.0977C38.0957 14.1898 38.6365 14.3935 39.0627 14.7087C39.4893 15.0211 39.7925 15.4151 39.9724 15.8908C40.1555 16.3641 40.2067 16.8877 40.126 17.4616C40.0454 18.0355 39.8504 18.5245 39.5412 18.9286C39.2319 19.3326 38.8252 19.624 38.321 19.8028C37.8196 19.9819 37.2369 20.0248 36.573 19.9315L34.3997 19.626L34.6055 18.1617L36.4834 18.4257C36.835 18.4751 37.1333 18.4553 37.3782 18.3664C37.6263 18.275 37.8218 18.1289 37.9648 17.9281C38.111 17.7249 38.204 17.4812 38.2439 17.1971C38.2843 16.9101 38.2618 16.6516 38.1765 16.4216C38.0944 16.1892 37.9463 15.9977 37.7322 15.8471C37.5186 15.6937 37.2345 15.5921 36.88 15.5423L35.6478 15.3691L34.6431 22.5176L32.8159 22.2608ZM43.5517 14.9566L42.3371 23.5989L40.5099 23.3421L41.7245 14.6998L43.5517 14.9566ZM49.394 18.3123C49.4081 17.9671 49.3004 17.6823 49.0708 17.4578C48.8413 17.2334 48.5071 17.0903 48.0683 17.0286C47.7701 16.9867 47.5123 16.9935 47.2951 17.0491C47.0783 17.1018 46.9047 17.1936 46.7744 17.3244C46.647 17.4557 46.5702 17.6142 46.5441 17.7999C46.5167 17.9538 46.5301 18.0934 46.5842 18.2186C46.6412 18.3442 46.727 18.4581 46.8417 18.5603C46.9569 18.6597 47.0931 18.752 47.2504 18.8372C47.408 18.9196 47.5782 18.9952 47.7607 19.0639L48.5111 19.3587C48.8762 19.496 49.2064 19.6572 49.5017 19.8421C49.797 20.0271 50.0456 20.2385 50.2474 20.4763C50.4493 20.714 50.5939 20.9811 50.6814 21.2774C50.7716 21.5741 50.7929 21.9027 50.7451 22.2632C50.6679 22.7917 50.4684 23.2313 50.1466 23.5819C49.828 23.9302 49.4033 24.176 48.8725 24.3195C48.3449 24.4605 47.7294 24.4816 47.0261 24.3827C46.3284 24.2847 45.7358 24.0923 45.2482 23.8058C44.7634 23.5196 44.4056 23.1466 44.1747 22.6867C43.9471 22.2244 43.8699 21.6814 43.9432 21.0577L45.7114 21.3062C45.6903 21.5987 45.7393 21.8523 45.8583 22.067C45.9806 22.2792 46.1585 22.452 46.3923 22.5852C46.6292 22.7161 46.9052 22.8036 47.2203 22.8479C47.5297 22.8914 47.8047 22.8842 48.0453 22.8262C48.2886 22.7686 48.4848 22.6685 48.634 22.5259C48.7831 22.3833 48.8723 22.208 48.9016 21.9998C48.9288 21.8057 48.8941 21.6344 48.7973 21.486C48.7034 21.3379 48.5532 21.2021 48.3468 21.0784C48.1433 20.9551 47.8893 20.8334 47.5849 20.7131L46.677 20.3445C45.9733 20.0649 45.4369 19.7069 45.0679 19.2707C44.6989 18.8344 44.5607 18.2971 44.6533 17.6589C44.724 17.1352 44.9275 16.6977 45.2638 16.3462C45.6029 15.9951 46.0354 15.7446 46.5614 15.5947C47.0874 15.4449 47.6654 15.4142 48.2956 15.5028C48.937 15.5929 49.4815 15.7813 49.9289 16.068C50.3791 16.355 50.7104 16.7129 50.9227 17.1415C51.135 17.5701 51.2092 18.0424 51.1452 18.5584L49.394 18.3123ZM60.0419 20.3595L58.1936 20.0998C58.1934 19.8559 58.1543 19.6338 58.0763 19.4335C57.9987 19.2304 57.8877 19.0513 57.7431 18.8961C57.5985 18.741 57.4242 18.6132 57.2203 18.5128C57.0192 18.4128 56.7949 18.3454 56.5473 18.3106C56.1 18.2478 55.6947 18.3041 55.3315 18.4797C54.9687 18.6525 54.6662 18.937 54.4241 19.3333C54.1823 19.7268 54.0193 20.2232 53.9351 20.8224C53.8485 21.4385 53.8672 21.969 53.9911 22.4139C54.1179 22.8591 54.3322 23.212 54.6341 23.4725C54.9361 23.7329 55.305 23.8938 55.7411 23.9551C55.9859 23.9895 56.2169 23.9889 56.4341 23.9535C56.6542 23.9184 56.8546 23.8505 57.0351 23.7496C57.2161 23.646 57.3727 23.5116 57.5049 23.3466C57.6399 23.182 57.7447 22.9873 57.8193 22.7625L59.6665 23.0307C59.5629 23.4207 59.3896 23.7865 59.1465 24.1281C58.9066 24.4674 58.6059 24.7593 58.2445 25.004C57.8862 25.2463 57.4744 25.4208 57.009 25.5275C56.5468 25.6318 56.0386 25.645 55.4844 25.5671C54.7136 25.4588 54.0488 25.1875 53.4902 24.7533C52.9344 24.3194 52.5271 23.7472 52.2684 23.0367C52.0124 22.3265 51.9505 21.5017 52.0825 20.562C52.215 19.6196 52.5049 18.8427 52.9523 18.2314C53.3997 17.6201 53.9515 17.1842 54.6078 16.9235C55.2645 16.6601 55.9726 16.5817 56.7322 16.6885C57.233 16.7589 57.6873 16.8944 58.0951 17.0952C58.5058 17.2964 58.8581 17.5553 59.1521 17.872C59.4465 18.1859 59.6706 18.5516 59.8242 18.9691C59.9806 19.387 60.0532 19.8505 60.0419 20.3595ZM63.6046 17.7748L62.39 26.4172L60.5628 26.1604L61.7774 17.518L63.6046 17.7748ZM72.3366 19.002L71.122 27.6444L69.5438 27.4226L66.5483 21.4547L66.485 21.4458L65.7205 26.8852L63.8933 26.6284L65.1079 17.9861L66.7115 18.2115L69.678 24.171L69.754 24.1816L70.5178 18.7464L72.3366 19.002ZM72.6317 27.8565L73.8463 19.2142L79.6697 20.0326L79.458 21.5391L75.4618 20.9775L75.1723 23.0368L78.869 23.5563L78.6572 25.0628L74.9606 24.5433L74.6706 26.6068L78.6837 27.1708L78.472 28.6773L72.6317 27.8565Z" fill="#EBEDFF"/>
</svg>
